<svg width="50" height="43" viewBox="0 0 50 43" fill="none" xmlns="http://www.w3.org/2000/svg">
<path d="M40.302 16.7174C40.0241 16.7174 38.8271 16.7256 38.395 16.7491L32.4944 16.9043L18.8873 0.375H12.4718L20.0905 17.1883L10.1512 17.3354L5.62846 11.8147H0.305943L2.41105 21.4342C2.42637 21.4894 2.44476 21.5435 2.46518 21.5966C2.46669 21.6016 2.46669 21.607 2.46518 21.612C2.44424 21.6647 2.42617 21.7186 2.41105 21.7733L0.277344 31.4256H5.56616L10.2084 25.8079L20.0925 26.0295L12.4708 42.8653H18.9057L32.4903 26.3441L38.3909 26.5014C38.8291 26.5249 40.0252 26.5331 40.2968 26.5331C42.784 26.5331 44.8186 26.1919 46.3446 25.5178C48.9328 24.3779 49.3189 22.5864 49.3189 21.6201C49.3189 18.5498 45.9483 16.7174 40.302 16.7174Z" fill="white"/>
</svg>
