<svg width="46" height="40" viewBox="0 0 46 40" fill="none" xmlns="http://www.w3.org/2000/svg">
<path fill-rule="evenodd" clip-rule="evenodd" d="M15.3118 17.6042C20.0523 17.6042 23.8952 13.7613 23.8952 9.02083C23.8952 4.28039 20.0523 0.4375 15.3118 0.4375C10.5714 0.4375 6.72852 4.28039 6.72852 9.02083C6.72852 13.7613 10.5714 17.6042 15.3118 17.6042ZM15.3118 13.3125C17.6821 13.3125 19.6035 11.3911 19.6035 9.02083C19.6035 6.65061 17.6821 4.72917 15.3118 4.72917C12.9416 4.72917 11.0202 6.65061 11.0202 9.02083C11.0202 11.3911 12.9416 13.3125 15.3118 13.3125Z" fill="white"/>
<path d="M23.8952 24.0417C25.0803 24.0417 26.041 25.0024 26.041 26.1875V39.0625H30.3327V26.1875C30.3327 22.6322 27.4505 19.75 23.8952 19.75H6.72852C3.17318 19.75 0.291016 22.6322 0.291016 26.1875V39.0625H4.58268V26.1875C4.58268 25.0024 5.5434 24.0417 6.72852 24.0417H23.8952Z" fill="white"/>
<path d="M45.3535 17.6042H32.4785V21.8958H45.3535V17.6042Z" fill="white"/>
<path d="M34.6244 26.1875H45.3535V30.4792H34.6244V26.1875Z" fill="white"/>
<path d="M45.3535 9.02083H30.3327V13.3125H45.3535V9.02083Z" fill="white"/>
</svg>
