<svg width="50" height="50" viewBox="0 0 50 50" fill="none" xmlns="http://www.w3.org/2000/svg">
<path d="M46.3419 23.5592L41.6068 25.9267L35.4766 14.187L40.2599 11.7953C40.6193 11.6157 41.0348 11.5843 41.4171 11.708C41.7994 11.8317 42.1178 12.1006 42.3038 12.4567L47.015 21.4791C47.1092 21.6595 47.1666 21.8568 47.1837 22.0596C47.2008 22.2624 47.1773 22.4666 47.1146 22.6603C47.052 22.8539 46.9514 23.0331 46.8187 23.1875C46.686 23.3418 46.5239 23.4682 46.3419 23.5592V23.5592Z" stroke="white" stroke-width="3.34375" stroke-linecap="round" stroke-linejoin="round"/>
<path d="M7.8909 25.7214L3.15577 23.3539C2.97373 23.2628 2.81164 23.1365 2.67897 22.9821C2.5463 22.8278 2.4457 22.6486 2.38303 22.4549C2.32037 22.2613 2.29691 22.0571 2.31401 21.8543C2.33112 21.6515 2.38845 21.4541 2.48265 21.2737L7.1939 12.2514C7.37987 11.8953 7.69828 11.6264 8.08055 11.5027C8.46283 11.379 8.87839 11.4103 9.23777 11.59L14.0211 13.9817L7.8909 25.7214Z" stroke="white" stroke-width="3.34375" stroke-linecap="round" stroke-linejoin="round"/>
<path d="M41.6068 25.9268L38.5417 29.5125L31.4925 36.5617C31.3053 36.7489 31.0729 36.8844 30.8179 36.955C30.5628 37.0256 30.2938 37.029 30.0371 36.9648L18.9344 34.1892C18.7261 34.1371 18.5311 34.0419 18.362 33.9096L7.89062 25.7214" stroke="white" stroke-width="3.34375" stroke-linecap="round" stroke-linejoin="round"/>
<path d="M38.5412 29.5125L30.1121 23.3823L27.6601 25.2214C26.5989 26.0172 25.3083 26.4474 23.9819 26.4474C22.6555 26.4474 21.3649 26.0172 20.3038 25.2214L19.2654 24.4426C19.0897 24.3108 18.9444 24.1429 18.8393 23.9501C18.7342 23.7573 18.6718 23.5442 18.6562 23.3252C18.6406 23.1061 18.6723 22.8863 18.7491 22.6806C18.8259 22.4749 18.946 22.2881 19.1012 22.1328L26.5982 14.6359C26.7405 14.4936 26.9094 14.3807 27.0954 14.3037C27.2813 14.2267 27.4806 14.187 27.6818 14.187H35.4761" stroke="white" stroke-width="3.34375" stroke-linecap="round" stroke-linejoin="round"/>
<path d="M14.1328 13.9819L23.9641 11.1157C24.3153 11.0133 24.6916 11.0399 25.0249 11.1907L31.6471 14.1872" stroke="white" stroke-width="3.34375" stroke-linecap="round" stroke-linejoin="round"/>
<path d="M21.6829 41.0068L15.9092 39.5633C15.6749 39.5047 15.4577 39.3916 15.2754 39.2332L10.9551 35.4778" stroke="white" stroke-width="3.34375" stroke-linecap="round" stroke-linejoin="round"/>
</svg>
