<svg width="41" height="41" viewBox="0 0 41 41" fill="none" xmlns="http://www.w3.org/2000/svg">
<path d="M18.5208 31.8958C18.5208 33.1219 19.524 34.125 20.75 34.125C21.976 34.125 22.9792 33.1219 22.9792 31.8958C22.9792 30.6698 21.976 29.6667 20.75 29.6667C19.524 29.6667 18.5208 30.6698 18.5208 31.8958ZM18.5208 0.6875V9.60417H22.9792V5.32417C30.536 6.41646 36.3542 12.881 36.3542 20.75C36.3542 29.3769 29.3769 36.3542 20.75 36.3542C12.1231 36.3542 5.14583 29.3769 5.14583 20.75C5.14583 17.005 6.46104 13.5721 8.66792 10.8971L20.75 22.9792L23.8931 19.836L8.73479 4.67771V4.72229C3.85292 8.37813 0.6875 14.174 0.6875 20.75C0.6875 31.829 9.64875 40.8125 20.75 40.8125C31.829 40.8125 40.8125 31.829 40.8125 20.75C40.8125 9.67104 31.829 0.6875 20.75 0.6875H18.5208ZM34.125 20.75C34.125 19.524 33.1219 18.5208 31.8958 18.5208C30.6698 18.5208 29.6667 19.524 29.6667 20.75C29.6667 21.976 30.6698 22.9792 31.8958 22.9792C33.1219 22.9792 34.125 21.976 34.125 20.75ZM7.375 20.75C7.375 21.976 8.37813 22.9792 9.60417 22.9792C10.8302 22.9792 11.8333 21.976 11.8333 20.75C11.8333 19.524 10.8302 18.5208 9.60417 18.5208C8.37813 18.5208 7.375 19.524 7.375 20.75Z" fill="white"/>
</svg>
