<svg width="48" height="38" viewBox="0 0 48 38" fill="none" xmlns="http://www.w3.org/2000/svg">
<path d="M44.6484 7.79399L37.9609 11.6445V3.70312C37.9609 1.85884 36.4615 0.359375 34.6172 0.359375H3.6875C1.84321 0.359375 0.34375 1.85884 0.34375 3.70312V33.7969C0.34375 35.6412 1.84321 37.1406 3.6875 37.1406H34.6172C36.4615 37.1406 37.9609 35.6412 37.9609 33.7969V25.8555L44.6484 29.706C45.7613 30.3486 47.1562 29.544 47.1562 28.264V9.24121C47.1562 7.95596 45.7613 7.15137 44.6484 7.79399ZM34.1992 33.3789H4.10547V4.12109H34.1992V33.3789ZM43.3945 24.6538L37.9609 21.5295V15.9757L43.3945 12.8462V24.6538ZM7.86719 10.8086H13.7188C13.9486 10.8086 14.1367 10.6205 14.1367 10.3906V7.88281C14.1367 7.65293 13.9486 7.46484 13.7188 7.46484H7.86719C7.6373 7.46484 7.44922 7.65293 7.44922 7.88281V10.3906C7.44922 10.6205 7.6373 10.8086 7.86719 10.8086Z" fill="white"/>
</svg>
