<svg width="23" height="37" viewBox="0 0 23 37" fill="none" xmlns="http://www.w3.org/2000/svg">
<path fill-rule="evenodd" clip-rule="evenodd" d="M11.625 0.875C17.7421 0.875 22.7188 5.85166 22.7188 11.9688C22.7188 17.3248 18.9003 21.8089 13.8438 22.8362V25.2812C13.8438 26.5082 12.852 27.5 11.625 27.5C10.398 27.5 9.40625 26.5082 9.40625 25.2812V20.8438C9.40625 19.6168 10.398 18.625 11.625 18.625C15.2948 18.625 18.2812 15.6386 18.2812 11.9688C18.2812 8.29894 15.2948 5.3125 11.625 5.3125C7.95519 5.3125 4.96875 8.29894 4.96875 11.9688C4.96875 13.1957 3.97697 14.1875 2.75 14.1875C1.52303 14.1875 0.53125 13.1957 0.53125 11.9688C0.53125 5.85166 5.50791 0.875 11.625 0.875ZM9.40625 34.1562C9.40625 32.9293 10.398 31.9375 11.625 31.9375C12.852 31.9375 13.8438 32.9293 13.8438 34.1562C13.8438 35.3832 12.852 36.375 11.625 36.375C10.398 36.375 9.40625 35.3832 9.40625 34.1562Z" fill="white"/>
</svg>
