<svg width="150" height="46" viewBox="0 0 150 46" fill="none" xmlns="http://www.w3.org/2000/svg">
<rect x="0.791304" y="0.631148" width="148.279" height="45" rx="6.27049" stroke="url(#paint0_linear_808_9654)" stroke-width="0.737705"/>
<path fill-rule="evenodd" clip-rule="evenodd" d="M44.7151 16.828H47.3347C47.9094 16.8418 48.4808 16.7358 49.0122 16.5167C49.4616 16.3245 49.8613 16.0323 50.1808 15.6624C50.4963 15.2874 50.7291 14.85 50.8639 14.3788C51.0148 13.8587 51.0893 13.3195 51.0852 12.778C51.0861 12.2751 51.0272 11.7739 50.9096 11.2849C50.8002 10.8177 50.5944 10.3784 50.3054 9.99537C50.0027 9.60515 49.6095 9.29449 49.1598 9.09021C48.5915 8.84615 47.9764 8.73029 47.3583 8.75087H44.7159V16.8273L44.7151 16.828ZM45.2122 16.3978V9.18078H47.2778C47.4996 9.18222 47.7213 9.19552 47.9417 9.22062C48.1929 9.24786 48.4403 9.30278 48.6794 9.38439C48.9314 9.47113 49.1708 9.59094 49.3913 9.7407C49.6343 9.90959 49.8414 10.125 50.0006 10.3744C50.1943 10.6801 50.3392 11.0141 50.43 11.3644C50.5476 11.8263 50.6027 12.302 50.5938 12.7786C50.612 13.3743 50.5143 13.9678 50.3061 14.5262C50.1423 14.9469 49.8856 15.3252 49.5551 15.6328C49.2578 15.9022 48.9054 16.1036 48.5223 16.2229C48.1551 16.3381 47.7726 16.3973 47.3877 16.3985H45.2196L45.2122 16.3978ZM51.9364 15.0972C52.0444 15.4499 52.2198 15.7784 52.4528 16.0643C52.6803 16.3409 52.9653 16.5647 53.2879 16.7202C54.0138 17.0447 54.8437 17.0447 55.5696 16.7202C55.8921 16.5645 56.177 16.3407 56.4047 16.0643C56.6372 15.778 56.8125 15.4497 56.9211 15.0972C57.0394 14.7163 57.0984 14.3194 57.0959 13.9206C57.0986 13.5236 57.0396 13.1287 56.9211 12.7498C56.8108 12.3981 56.6356 12.0701 56.4047 11.7827C56.1786 11.5027 55.8934 11.276 55.5696 11.1188C54.8436 10.7945 54.0139 10.7945 53.2879 11.1188C52.964 11.2758 52.6788 11.5025 52.4528 11.7827C52.2213 12.0697 52.0461 12.3978 51.9364 12.7498C51.8179 13.1287 51.7589 13.5236 51.7616 13.9206C51.7592 14.3194 51.8181 14.7163 51.9364 15.0972ZM52.3377 12.9198C52.4288 12.6119 52.5739 12.3226 52.7663 12.0655C52.9529 11.8182 53.192 11.6154 53.4664 11.4717C54.072 11.1783 54.7787 11.1783 55.3844 11.4717C55.6587 11.6156 55.8977 11.8184 56.0845 12.0655C56.2768 12.3226 56.422 12.6119 56.5131 12.9198C56.7088 13.5728 56.7088 14.2689 56.5131 14.9219C56.4219 15.2298 56.2768 15.519 56.0845 15.7762C55.8971 16.0218 55.6582 16.2233 55.3844 16.3663C54.7787 16.6597 54.072 16.6597 53.4664 16.3663C53.1925 16.2235 52.9534 16.022 52.7663 15.7762C52.574 15.519 52.4289 15.2298 52.3377 14.9219C52.1419 14.2689 52.1419 13.5728 52.3377 12.9198ZM57.8145 11.0135H57.3512L59.1955 16.8281H59.7332L61.337 11.5565H61.3591L62.9518 16.8281H63.4823L65.3457 11.0135H64.8714L63.2484 16.3302H63.2255L61.6336 11.0135H61.0574L59.4765 16.3302H59.4537L57.8145 11.0135ZM65.5603 16.8281H65.9889V13.6832C65.9856 13.3518 66.0334 13.0219 66.1306 12.705C66.2154 12.4238 66.3553 12.1622 66.5422 11.9356C66.7213 11.7221 66.9448 11.5504 67.1973 11.4325C67.4738 11.3076 67.7747 11.2459 68.0781 11.2518C68.3992 11.2342 68.7186 11.3087 68.9988 11.4664C69.2052 11.5939 69.376 11.7715 69.4952 11.9828C69.6027 12.1766 69.67 12.3902 69.6929 12.6106C69.7134 12.7909 69.7247 12.9721 69.7269 13.1536V16.8303H70.1562V13.231C70.1562 13.1108 70.1562 12.9691 70.1444 12.8068C70.1362 12.6376 70.1137 12.4693 70.0773 12.3037C70.0373 12.1244 69.9745 11.9508 69.8906 11.7873C69.8014 11.614 69.6808 11.4587 69.5351 11.3292C69.365 11.1824 69.1674 11.0708 68.9538 11.0009C68.6745 10.9116 68.3823 10.8695 68.0892 10.8763C67.8648 10.8765 67.6415 10.907 67.4252 10.967C66.9976 11.084 66.6168 11.3309 66.3356 11.6737C66.1943 11.8471 66.0854 12.0445 66.014 12.2565H65.9911V11.0135H65.5611V16.8281H65.5603ZM71.0484 8.75178V16.8282H71.4778V8.75178H71.0484V8.75178ZM72.7816 15.0957C72.8899 15.4484 73.0652 15.7768 73.298 16.0629C73.5258 16.3395 73.811 16.5632 74.1339 16.7187C74.8595 17.0433 75.6892 17.0433 76.4148 16.7187C76.7377 16.5632 77.0229 16.3395 77.2507 16.0629C77.4835 15.7768 77.6588 15.4484 77.7671 15.0957C77.886 14.7149 77.9452 14.318 77.9426 13.9191C77.9454 13.5221 77.8862 13.1271 77.7671 12.7484C77.6571 12.3965 77.4819 12.0684 77.2507 11.7812C77.0244 11.501 76.739 11.2743 76.4148 11.1173C75.6891 10.7931 74.8596 10.7931 74.1339 11.1173C73.8097 11.2743 73.5243 11.501 73.298 11.7812C73.0668 12.0684 72.8916 12.3965 72.7816 12.7484C72.6628 13.1271 72.6038 13.5221 72.6068 13.9191C72.6041 14.3185 72.6633 14.716 72.7824 15.0972L72.7816 15.0957ZM73.1823 12.9181C73.274 12.6103 73.4194 12.3212 73.6116 12.0639C73.798 11.8164 74.0372 11.6136 74.3117 11.47C74.9173 11.1764 75.6241 11.1764 76.2297 11.47C76.5043 11.6136 76.7434 11.8164 76.9298 12.0639C77.1221 12.3212 77.2674 12.6103 77.3592 12.9181C77.5549 13.5712 77.5549 14.2672 77.3592 14.9203C77.2674 15.2281 77.1221 15.5173 76.9298 15.7745C76.7429 16.0205 76.5038 16.222 76.2297 16.3647C75.6241 16.6583 74.9173 16.6583 74.3117 16.3647C74.0377 16.222 73.7986 16.0205 73.6116 15.7745C73.4194 15.5173 73.274 15.2281 73.1823 14.9203C72.9871 14.2676 72.9873 13.5721 73.183 12.9196L73.1823 12.9181ZM83.3118 15.9782C83.3112 16.09 83.3206 16.2016 83.3399 16.3117C83.3561 16.4069 83.3929 16.4975 83.4476 16.5772C83.5065 16.658 83.5867 16.7208 83.6792 16.7587C83.8104 16.8091 83.9504 16.8322 84.0908 16.8266C84.2091 16.8267 84.327 16.8114 84.4413 16.7808V16.4179C84.3368 16.4371 84.231 16.4484 84.1248 16.4518C84.0446 16.4572 83.965 16.4351 83.899 16.3891C83.846 16.3469 83.8068 16.2899 83.7862 16.2253C83.7623 16.1521 83.7489 16.0759 83.7463 15.9989C83.7463 15.9162 83.7412 15.8329 83.7412 15.7503V12.3708C83.7546 11.9564 83.5777 11.5585 83.2609 11.2908C82.8151 10.978 82.2736 10.8318 81.7309 10.8777C81.1499 10.8398 80.5745 11.0104 80.108 11.3587C79.7055 11.7289 79.4814 12.2542 79.4927 12.8009H79.9221C79.9177 12.3544 80.1097 11.9284 80.4473 11.6361C80.8097 11.3661 81.2545 11.2303 81.7058 11.2517C81.9575 11.2465 82.2086 11.277 82.4517 11.3425C82.6321 11.3913 82.8009 11.4758 82.9481 11.5911C83.0694 11.688 83.1662 11.8121 83.2307 11.9533C83.2915 12.0929 83.3221 12.2437 83.3207 12.3959C83.3232 12.5662 83.3118 12.7365 83.2867 12.9049C83.2689 13.0317 83.2095 13.149 83.1178 13.2384C83.0027 13.338 82.8649 13.408 82.7165 13.442C82.4777 13.5006 82.2339 13.5367 81.9884 13.5497L81.3244 13.6065C81.0799 13.6307 80.8368 13.6684 80.5963 13.7194C80.3533 13.7683 80.1203 13.8581 79.9073 13.9849C79.4348 14.2609 79.1576 14.7791 79.1903 15.3253C79.1526 15.7956 79.3414 16.2557 79.6985 16.564C80.1175 16.856 80.6229 16.9977 81.1326 16.966C81.3926 16.9674 81.6514 16.9319 81.9013 16.8605C82.1231 16.7978 82.3342 16.7023 82.5276 16.5772C82.7037 16.4642 82.8617 16.3252 82.9961 16.1649C83.1205 16.0179 83.2201 15.8517 83.2912 15.6728H83.314V15.9782H83.3118ZM83.3121 14.6088C83.3026 14.7553 83.2819 14.9008 83.2501 15.0441C83.1983 15.2821 83.1003 15.5077 82.9617 15.708C82.791 15.9571 82.5676 16.1657 82.3073 16.3188C81.9516 16.5135 81.5489 16.6057 81.144 16.5851C80.7471 16.6076 80.3538 16.4982 80.0256 16.2738C79.7418 16.0396 79.5901 15.6817 79.6191 15.3148C79.6087 15.083 79.6637 14.853 79.7778 14.6509C79.8795 14.485 80.021 14.3471 80.1894 14.2496C80.3666 14.1488 80.5593 14.078 80.7596 14.0401C80.9706 13.9988 81.1816 13.9668 81.3926 13.9442L82.1148 13.8763C82.3557 13.857 82.5951 13.823 82.8318 13.7745C83.0172 13.7458 83.1869 13.6538 83.3121 13.5141V14.6103V14.6088ZM90.0758 16.8267H90.5051V8.75178H90.0758V12.3149H90.0529C89.9083 11.8748 89.6148 11.4989 89.223 11.2519C89.0282 11.1301 88.8171 11.0367 88.5959 10.9745C88.3718 10.9108 88.1399 10.8785 87.9069 10.8786C87.5136 10.8694 87.1234 10.9506 86.7664 11.1161C86.452 11.2671 86.1761 11.4876 85.9594 11.7609C85.7366 12.0487 85.5733 12.3779 85.4791 12.7295C85.2725 13.4996 85.2687 14.31 85.4681 15.082C85.5575 15.4295 85.7106 15.7574 85.9195 16.0492C86.1245 16.3276 86.3911 16.5549 86.6986 16.7131C87.4834 17.0766 88.3951 17.0409 89.1492 16.6172C89.5362 16.3586 89.848 16.0023 90.0529 15.5844H90.075V16.8289L90.0758 16.8267ZM86.948 16.3684C86.6817 16.2258 86.4518 16.0238 86.2759 15.7782C86.0945 15.5193 85.9608 15.23 85.8813 14.924C85.7939 14.6013 85.75 14.2683 85.7507 13.934C85.7499 13.5948 85.7897 13.2567 85.8695 12.927C85.9415 12.6186 86.072 12.3269 86.2538 12.0676C86.4286 11.8203 86.6584 11.6171 86.9251 11.4737C87.229 11.3189 87.5668 11.2428 87.9077 11.2524C88.2436 11.2447 88.576 11.3226 88.8734 11.4789C89.1421 11.6245 89.3724 11.8318 89.5454 12.0838C89.7229 12.3462 89.8546 12.6368 89.9349 12.9432C90.0217 13.2661 90.0654 13.599 90.0648 13.9332C90.0648 14.2636 90.0212 14.5925 89.9349 14.9114C89.8553 15.2173 89.7213 15.5064 89.5395 15.765C89.3656 16.0118 89.1388 16.2167 88.8756 16.3647C88.5826 16.5216 88.2539 16.5996 87.9217 16.5912C87.584 16.6004 87.2493 16.5242 86.9487 16.3699L86.948 16.3684ZM94.9157 15.0957C95.0239 15.4484 95.1993 15.7768 95.4321 16.0629C95.6599 16.3395 95.9451 16.5632 96.2679 16.7187C96.9936 17.0433 97.8232 17.0433 98.5489 16.7187C98.8717 16.5632 99.1569 16.3395 99.3847 16.0629C99.6175 15.7768 99.7928 15.4484 99.9011 15.0957C100.02 14.7149 100.079 14.318 100.077 13.9191C100.079 13.5221 100.02 13.1272 99.9011 12.7484C99.7911 12.3965 99.6159 12.0684 99.3847 11.7812C99.1584 11.501 98.873 11.2743 98.5489 11.1173C97.8231 10.7931 96.9936 10.7931 96.2679 11.1173C95.9437 11.2743 95.6583 11.501 95.4321 11.7812C95.2008 12.0684 95.0257 12.3965 94.9157 12.7484C94.7965 13.1271 94.7373 13.5221 94.7401 13.9191C94.7376 14.3186 94.7971 14.716 94.9164 15.0972L94.9157 15.0957ZM95.3156 12.9181C95.4073 12.6103 95.5527 12.3212 95.7449 12.0639C95.9313 11.8164 96.1705 11.6136 96.445 11.47C97.0507 11.1764 97.7574 11.1764 98.3631 11.47C98.6376 11.6136 98.8767 11.8164 99.0631 12.0639C99.2554 12.3212 99.4007 12.6103 99.4925 12.9181C99.6882 13.5712 99.6882 14.2672 99.4925 14.9203C99.4007 15.2281 99.2554 15.5173 99.0631 15.7745C98.8762 16.0205 98.6371 16.222 98.3631 16.3647C97.7574 16.6583 97.0507 16.6583 96.445 16.3647C96.171 16.222 95.9319 16.0205 95.7449 15.7745C95.5527 15.5173 95.4073 15.2281 95.3156 14.9203C95.1204 14.2676 95.1206 13.5721 95.3163 12.9196L95.3156 12.9181ZM101.097 16.8281H101.526V13.6833C101.523 13.3519 101.571 13.022 101.667 12.7051C101.752 12.4238 101.893 12.1623 102.08 11.9356C102.259 11.7221 102.482 11.5504 102.735 11.4325C103.011 11.3077 103.312 11.2459 103.615 11.2518C103.937 11.2343 104.256 11.3088 104.536 11.4664C104.743 11.5939 104.913 11.7715 105.033 11.9828C105.14 12.1768 105.207 12.3903 105.23 12.6106C105.251 12.7909 105.262 12.9721 105.264 13.1536V16.8303H105.692V13.231C105.692 13.1108 105.688 12.9692 105.68 12.8069C105.672 12.6376 105.649 12.4693 105.613 12.3037C105.573 12.1244 105.51 11.9509 105.427 11.7873C105.337 11.614 105.217 11.4587 105.071 11.3292C104.901 11.1823 104.703 11.0707 104.489 11.001C104.21 10.9115 103.918 10.8694 103.625 10.8763C103.401 10.8765 103.177 10.907 102.961 10.967C102.533 11.084 102.153 11.331 101.872 11.6737C101.73 11.8471 101.621 12.0445 101.55 12.2565H101.527V11.0135H101.098V16.8281H101.097ZM112.683 11.0134H111.419V9.20384H110.99V11.0134H109.917V11.3867H110.99V15.4441C110.963 15.7101 111.004 15.9784 111.108 16.2246C111.19 16.3998 111.321 16.5473 111.486 16.6488C111.654 16.7459 111.841 16.8039 112.034 16.8184C112.246 16.837 112.46 16.839 112.672 16.8243V16.4547C112.493 16.4628 112.314 16.4589 112.136 16.4429C111.996 16.4328 111.86 16.3882 111.741 16.3131C111.629 16.2379 111.543 16.1288 111.498 16.0018C111.438 15.8234 111.412 15.6357 111.419 15.4478V11.3904H112.683V11.0134ZM113.2 8.7507V16.8271H113.629V13.683C113.626 13.3516 113.673 13.0217 113.77 12.7048C113.855 12.4236 113.996 12.1621 114.183 11.9354C114.362 11.7219 114.585 11.5502 114.838 11.4323C115.116 11.3071 115.42 11.246 115.725 11.2537C116.046 11.2363 116.365 11.3107 116.645 11.4684C116.852 11.5958 117.023 11.7735 117.142 11.9848C117.249 12.1787 117.317 12.3922 117.34 12.6126C117.362 12.8339 117.374 13.0124 117.374 13.1555V16.8323H117.802V13.2308C117.802 13.1103 117.799 12.9689 117.791 12.8066C117.783 12.6373 117.76 12.469 117.724 12.3035C117.684 12.1241 117.622 11.9505 117.538 11.7871C117.448 11.6139 117.327 11.4586 117.181 11.329C117.011 11.1821 116.814 11.0705 116.6 11.0007C116.321 10.9114 116.029 10.8692 115.736 10.876C115.512 10.8762 115.288 10.9068 115.072 10.9668C114.645 11.0837 114.264 11.3307 113.983 11.6735C113.841 11.8468 113.732 12.0442 113.66 12.2563H113.638V8.75143H113.209L113.2 8.7507ZM124.639 13.9769C124.639 13.9466 124.639 13.9075 124.645 13.8581C124.65 13.8087 124.65 13.7659 124.65 13.7283C124.653 13.3544 124.598 12.9823 124.487 12.6254C124.385 12.2961 124.222 11.9891 124.006 11.7202C123.794 11.4587 123.526 11.248 123.222 11.1035C122.885 10.9472 122.516 10.8698 122.144 10.877C121.743 10.8672 121.346 10.9545 120.986 11.1315C120.667 11.2947 120.387 11.5264 120.167 11.8102C119.943 12.1045 119.777 12.4383 119.676 12.7943C119.566 13.1748 119.511 13.569 119.512 13.9651C119.509 14.364 119.562 14.7613 119.67 15.1454C119.766 15.4909 119.929 15.8139 120.15 16.0956C120.366 16.3645 120.641 16.5809 120.952 16.7285C121.304 16.8903 121.689 16.9698 122.076 16.9609C122.686 16.9906 123.286 16.7976 123.764 16.4179C124.214 16.0106 124.508 15.4583 124.594 14.8569H124.165C124.068 15.3435 123.823 15.7881 123.463 16.1295C123.077 16.4509 122.583 16.6145 122.082 16.5876C121.758 16.5947 121.438 16.5249 121.147 16.384C120.886 16.2524 120.659 16.0626 120.483 15.8292C120.301 15.5856 120.164 15.3106 120.081 15.0178C119.989 14.7016 119.944 14.3739 119.945 14.0447V13.9776H124.643L124.639 13.9769ZM119.953 13.6035C119.976 13.3019 120.037 13.0044 120.135 12.7183C120.226 12.4436 120.368 12.1884 120.553 11.9658C120.738 11.7484 120.965 11.5714 121.221 11.4457C121.509 11.3103 121.825 11.2446 122.143 11.2539C122.443 11.2485 122.74 11.3145 123.009 11.4465C123.258 11.5716 123.478 11.7475 123.655 11.9629C123.836 12.1836 123.972 12.4371 124.057 12.7094C124.149 13.0009 124.202 13.3033 124.216 13.6087H119.958L119.953 13.6035ZM42.9883 36.0562H43.9473L45.7967 31.3939H52.7481L54.5776 36.0562H55.533L49.801 21.519H48.825L42.9883 36.0562ZM46.0789 30.62L49.3107 22.3946H49.3513L52.4615 30.62H46.0862H46.0789ZM57.1361 25.5913H56.3837V39.8032H57.1361V33.878H57.1767C57.4275 34.6577 57.957 35.3175 58.6639 35.7311C59.3758 36.1192 60.1763 36.3154 60.987 36.3006C61.7044 36.3174 62.4169 36.1785 63.0754 35.8934C63.6461 35.6373 64.1486 35.2504 64.542 34.764C64.9433 34.2542 65.2378 33.6689 65.408 33.0429C65.6052 32.327 65.7013 31.5871 65.6935 30.8445C65.6967 30.1356 65.6008 29.4297 65.4088 28.7473C65.2348 28.1139 64.9416 27.5195 64.5449 26.9959C64.1538 26.4904 63.6535 26.0798 63.0813 25.795C62.432 25.4831 61.7181 25.3296 60.998 25.3472C60.0344 25.327 59.0959 25.6558 58.3556 26.273C58.0598 26.519 57.8057 26.8112 57.6031 27.1383C57.4342 27.4065 57.2978 27.6937 57.1966 27.9941H57.1361V25.5913ZM59.1433 35.2316C58.6668 34.984 58.2608 34.6198 57.963 34.173C57.6607 33.7081 57.4499 33.1898 57.3419 32.6459C57.2178 32.0535 57.1562 31.4497 57.1582 30.8444C57.1561 30.2378 57.2245 29.6331 57.3618 29.0422C57.4861 28.4931 57.7112 27.9718 58.0257 27.5048C58.3325 27.0562 58.741 26.6864 59.2178 26.4256C60.3484 25.879 61.6676 25.8828 62.795 26.4359C63.2789 26.7035 63.6938 27.0801 64.007 27.5358C64.3274 28.0075 64.5621 28.5319 64.7005 29.085C65.003 30.2676 64.9994 31.5078 64.6901 32.6887C64.5488 33.2345 64.3069 33.7491 63.9768 34.2062C63.6563 34.6414 63.2391 34.9962 62.7581 35.2426C62.2104 35.5125 61.6054 35.6454 60.995 35.6299C60.3554 35.6508 59.7205 35.5132 59.147 35.2293L59.1433 35.2316ZM68.925 25.5914H68.1725V39.8032H68.925V33.878H68.9648C69.2161 34.6574 69.7455 35.3171 70.4521 35.7311C71.1639 36.1191 71.9645 36.3154 72.7751 36.3006C73.4925 36.3174 74.205 36.1785 74.8635 35.8934C75.4346 35.6378 75.9371 35.2508 76.3301 34.764C76.7317 34.2544 77.0263 33.6691 77.1962 33.0429C77.3933 32.327 77.4894 31.5871 77.4816 30.8446C77.4848 30.1356 77.389 29.4297 77.1969 28.7473C77.0229 28.1139 76.7297 27.5195 76.333 26.9959C75.9422 26.4902 75.4418 26.0796 74.8694 25.795C74.2202 25.483 73.5062 25.3296 72.7862 25.3472C71.8225 25.327 70.884 25.6558 70.1437 26.273C69.8499 26.5197 69.5978 26.8121 69.3971 27.1391C69.228 27.4071 69.0915 27.6944 68.9907 27.9948H68.9294V25.5921L68.925 25.5914ZM70.9322 35.2315C70.4557 34.984 70.0496 34.6198 69.7519 34.1729C69.4499 33.7079 69.2391 33.1897 69.1307 32.6459C69.0067 32.0535 68.9451 31.4497 68.947 30.8444C68.945 30.2378 69.0133 29.6331 69.1506 29.0422C69.2753 28.4932 69.5004 27.972 69.8146 27.5048C70.1218 27.0563 70.5305 26.6865 71.0074 26.4256C72.1378 25.879 73.4567 25.8828 74.5838 26.4359C75.0678 26.7037 75.483 27.0802 75.7966 27.5358C76.1164 28.0077 76.3509 28.532 76.4893 29.085C76.7918 30.2676 76.7883 31.5078 76.479 32.6887C76.3377 33.2345 76.0957 33.7491 75.7656 34.2061C75.4443 34.6424 75.0258 34.9977 74.5433 35.2441C73.9956 35.514 73.3905 35.6469 72.7801 35.6314C72.1417 35.6512 71.5082 35.5131 70.9359 35.2293L70.9322 35.2315ZM95.4515 25.6723C95.4327 24.9583 95.2593 24.2568 94.9432 23.6163C94.6606 23.0652 94.2535 22.5876 93.754 22.2213C93.2334 21.85 92.6472 21.5806 92.0263 21.4275C91.3317 21.2533 90.6178 21.1678 89.9017 21.173C89.3194 21.1746 88.7393 21.2461 88.174 21.3862C87.6147 21.5192 87.082 21.7464 86.599 22.0583C86.1308 22.3643 85.741 22.7759 85.4607 23.26C85.157 23.8036 85.0058 24.4191 85.0233 25.0416C84.9987 25.6365 85.1471 26.2259 85.4504 26.7383C85.735 27.1795 86.1177 27.5489 86.5688 27.8175C87.0639 28.1112 87.5975 28.3346 88.1541 28.4815C88.7502 28.6448 89.3531 28.7874 89.963 28.9093C90.5866 29.0313 91.193 29.1636 91.7821 29.3062C92.331 29.434 92.863 29.6253 93.3675 29.8765C93.8123 30.095 94.1991 30.4158 94.4962 30.8126C94.796 31.2525 94.9456 31.7776 94.9226 32.3094C94.9441 32.8685 94.7991 33.4213 94.5057 33.8977C94.2383 34.3083 93.8846 34.6557 93.4693 34.9157C93.0503 35.1757 92.5896 35.3617 92.1075 35.4653C91.6507 35.5695 91.1839 35.6242 90.7154 35.6284C90.0242 35.6315 89.3351 35.5528 88.6624 35.3938C88.0513 35.2558 87.4742 34.9961 86.9657 34.6302C86.4848 34.2778 86.0976 33.8131 85.8377 33.2766C85.5509 32.642 85.4318 31.9445 85.4917 31.2508H84.5976C84.5603 32.0698 84.717 32.886 85.055 33.6329C85.3563 34.2637 85.8061 34.812 86.3659 35.2307C86.9493 35.6578 87.613 35.9627 88.3171 36.1271C89.1029 36.3147 89.9084 36.4069 90.7162 36.4015C91.3016 36.398 91.8846 36.3264 92.4535 36.1883C93.0395 36.0529 93.5969 35.8149 94.1 35.4852C94.5964 35.1584 95.016 34.7278 95.3298 34.223C95.6719 33.6449 95.8414 32.9808 95.8181 32.3094C95.8409 31.6941 95.6931 31.0844 95.391 30.5478C95.1102 30.0842 94.7237 29.6936 94.263 29.408C93.7693 29.1048 93.2357 28.8716 92.6777 28.7153C92.0876 28.5462 91.4809 28.4003 90.8578 28.2779C90.2485 28.1554 89.6455 28.0266 89.0489 27.8913C88.5016 27.7724 87.9697 27.5912 87.4636 27.3513C87.0272 27.1469 86.6444 26.8439 86.3453 26.4661C86.0464 26.0527 85.8962 25.5504 85.9189 25.0408C85.8997 24.515 86.0338 23.995 86.3047 23.544C86.5536 23.1513 86.8915 22.8228 87.291 22.585C87.6932 22.3464 88.133 22.1778 88.5916 22.0863C89.0227 21.9949 89.4618 21.947 89.9025 21.9432C90.5235 21.938 91.1424 22.0169 91.7423 22.1778C92.2675 22.316 92.761 22.5545 93.1956 22.8801C93.5998 23.1902 93.9297 23.5866 94.1612 24.0405C94.4095 24.5484 94.5447 25.1041 94.5574 25.6693H95.4522L95.4515 25.6723ZM101.691 25.5911H99.4219V22.3341H98.6496V25.5918H96.719V26.2639H98.6496V33.5731C98.6031 34.0508 98.6766 34.5326 98.8635 34.9747C99.0107 35.2905 99.2475 35.556 99.5444 35.7382C99.8454 35.9138 100.182 36.0182 100.53 36.0436C100.912 36.0778 101.296 36.0812 101.679 36.054V35.3819C101.357 35.3969 101.034 35.3903 100.713 35.362C100.46 35.3435 100.216 35.2629 100.002 35.1274C99.7996 34.9926 99.6462 34.7963 99.5643 34.5675C99.4574 34.2463 99.4091 33.9084 99.4219 33.5701V26.2609H101.698V25.5889L101.691 25.5911ZM102.335 32.9408C102.529 33.5752 102.843 34.1663 103.26 34.6818C103.67 35.1798 104.183 35.5826 104.764 35.8621C106.071 36.4454 107.564 36.4454 108.87 35.8621C109.451 35.5826 109.965 35.1798 110.374 34.6818C110.792 34.1663 111.106 33.5752 111.3 32.9408C111.512 32.2554 111.619 31.5413 111.615 30.8236C111.619 30.109 111.513 29.398 111.3 28.716C111.103 28.0832 110.789 27.4929 110.374 26.9757C109.967 26.4727 109.453 26.0659 108.87 25.7843C107.564 25.2011 106.071 25.2011 104.764 25.7843C104.181 26.0659 103.668 26.4727 103.26 26.9757C102.846 27.4929 102.532 28.0832 102.335 28.716C102.121 29.3979 102.015 30.109 102.02 30.8236C102.017 31.542 102.124 32.2567 102.339 32.9423L102.335 32.9408ZM103.057 29.0215C103.221 28.4675 103.483 27.9472 103.83 27.4848C104.165 27.0391 104.595 26.6739 105.09 26.4159C106.18 25.8858 107.454 25.8858 108.545 26.4159C109.039 26.6739 109.47 27.0391 109.805 27.4848C110.151 27.9475 110.413 28.4677 110.578 29.0215C110.93 30.1972 110.93 31.4502 110.578 32.6259C110.413 33.1797 110.151 33.7 109.805 34.1625C109.47 34.6083 109.039 34.9735 108.545 35.2315C107.454 35.7616 106.18 35.7616 105.09 35.2315C104.595 34.9735 104.165 34.6083 103.83 34.1625C103.483 33.7003 103.221 33.1799 103.057 32.6259C102.705 31.4502 102.707 30.1972 103.061 29.0222L103.057 29.0215ZM114.197 25.591H113.425V36.0561H114.197V30.3352C114.205 29.9938 114.239 29.6534 114.299 29.3172C114.346 29.0524 114.42 28.7931 114.52 28.5433C114.611 28.3186 114.731 28.1064 114.876 27.9119C115.031 27.7064 115.197 27.5094 115.374 27.3217C115.785 26.898 116.3 26.5891 116.868 26.4254C117.32 26.296 117.793 26.2547 118.26 26.3037V25.5298C117.798 25.5151 117.336 25.5665 116.888 25.6825C116.466 25.7903 116.063 25.9582 115.689 26.1812C115.343 26.3872 115.034 26.6487 114.774 26.9551C114.535 27.234 114.359 27.5611 114.258 27.9141H114.197V25.5933V25.591ZM127.815 30.9256C127.815 30.8718 127.815 30.8002 127.826 30.7117C127.836 30.6231 127.835 30.5457 127.835 30.4778C127.84 29.8048 127.741 29.1352 127.54 28.4927C127.357 27.9004 127.064 27.3479 126.676 26.8638C126.294 26.3945 125.811 26.0164 125.264 25.7572C124.656 25.476 123.992 25.3368 123.322 25.35C122.601 25.3324 121.886 25.4896 121.239 25.8081C120.663 26.1014 120.159 26.5186 119.763 27.0298C119.36 27.559 119.059 28.1597 118.878 28.8003C118.68 29.4848 118.58 30.1944 118.583 30.9072C118.578 31.6264 118.673 32.3429 118.868 33.0354C119.039 33.6572 119.333 34.2386 119.732 34.7454C120.121 35.2296 120.614 35.6194 121.175 35.8859C121.809 36.1763 122.501 36.3188 123.197 36.3027C124.295 36.3566 125.375 36.0094 126.236 35.326C127.047 34.5923 127.575 33.5983 127.731 32.5161H126.958C126.784 33.3918 126.342 34.192 125.695 34.8067C124.999 35.3856 124.111 35.6802 123.208 35.6314C122.626 35.6434 122.05 35.517 121.527 35.2626C121.054 35.027 120.643 34.6854 120.324 34.2645C119.995 33.8244 119.75 33.3275 119.6 32.7986C119.435 32.2298 119.353 31.6403 119.355 31.0481V30.9256H127.812H127.815ZM119.38 30.2536C119.421 29.7118 119.532 29.1775 119.709 28.6638C119.873 28.1695 120.129 27.7104 120.463 27.3101C120.795 26.9187 121.204 26.5998 121.665 26.3732C122.18 26.1274 122.745 26.0053 123.316 26.0169C123.856 26.0071 124.391 26.1259 124.876 26.3636C125.323 26.5882 125.718 26.9035 126.037 27.2895C126.362 27.687 126.607 28.1433 126.76 28.6336C126.926 29.1582 127.022 29.7024 127.046 30.2521H119.383L119.38 30.2536Z" fill="white"/>
<path fill-rule="evenodd" clip-rule="evenodd" d="M28.004 15.2059C31.233 15.2059 33.2978 18.3042 33.2978 18.3042C31.3855 19.4321 30.1936 21.4698 30.1478 23.6895C30.1384 26.2195 31.7235 28.4813 34.1049 29.3359C34.1049 29.3359 30.9814 36.693 27.4744 36.693C25.5032 36.693 25.3704 35.5665 22.7531 35.5665C20.4772 35.5665 19.7093 36.693 17.9757 36.693C14.6678 36.693 10.3936 29.5218 10.3936 23.6895C10.3936 17.6315 14.7202 15.2059 17.4335 15.2059C19.8155 15.2059 20.8077 16.5972 22.7265 16.5972C24.3384 16.5972 25.6087 15.2059 28.004 15.2059ZM27.4482 9.02832C27.924 11.9976 25.2115 15.6677 21.9693 15.5504C21.4927 11.7704 24.988 9.2275 27.4482 9.02832V9.02832Z" fill="white"/>
<defs>
<linearGradient id="paint0_linear_808_9654" x1="74.9306" y1="1" x2="74.9306" y2="45.2623" gradientUnits="userSpaceOnUse">
<stop stop-color="#A7ACB1"/>
<stop offset="0.0989583" stop-color="#BABFC3"/>
</linearGradient>
</defs>
</svg>
