<svg width="150" height="46" viewBox="0 0 150 46" fill="none" xmlns="http://www.w3.org/2000/svg">
<rect x="1.11064" y="0.631148" width="148.279" height="45" rx="6.27049" stroke="white" stroke-opacity="0.2" stroke-width="0.737705"/>
<path fill-rule="evenodd" clip-rule="evenodd" d="M114.036 36.5816H112.907V24.1395H114.036V36.5816ZM123.071 35.4507V29.7947C123.071 29.7947 122.757 27.4754 119.334 27.4754C115.91 27.4754 115.813 29.9836 115.813 29.9836H116.898C116.898 29.9836 116.845 28.2691 119.308 28.2691C121.77 28.2691 121.941 29.7947 121.941 29.7947V30.9263H119.683C116.811 30.9263 115.443 32.5375 115.443 34.083C115.443 35.6285 116.303 36.7262 118.408 36.7262C119.695 36.7094 120.94 36.2602 121.941 35.4507V36.5816H123.071V35.4507ZM121.941 33.1881C121.941 34.9726 119.585 35.8674 118.5 35.8674C117.415 35.8674 116.515 35.351 116.515 34.1626C116.515 32.9742 117.962 32.0572 119.687 32.0572H121.945V33.1881H121.941ZM124.2 27.5326H125.33L128.21 35.2107L130.975 27.5326H132.105C132.105 27.5326 129.105 37.9188 128.717 38.8439C128.329 39.7689 126.719 40.2145 125.581 40.2145C125.222 40.1942 124.872 40.0918 124.558 39.915L124.841 39.122C125.079 39.2273 125.339 39.2758 125.599 39.2636C126.102 39.2636 126.975 38.1002 126.975 38.1002L127.611 36.585L124.2 27.5326ZM107.644 27.4753C106.62 27.4054 105.629 27.8513 105.002 28.6637V27.5328H103.873V39.975H105.002V35.4506C105.037 35.5082 105.486 36.7261 107.67 36.7261C109.894 36.7261 111.614 35.2987 111.614 32.0299C111.614 28.7611 109.553 27.4753 107.644 27.4753ZM107.488 35.9066C105.664 35.9066 105.04 33.2457 105.005 33.1881V30.9263C105.04 30.8784 105.844 28.3215 107.621 28.3215C109.235 28.3215 110.585 29.9599 110.585 32.1007C110.585 34.2416 109.338 35.9066 107.488 35.9066ZM56.2315 25.1418C56.2315 25.1418 54.7627 23.6494 51.089 23.6494C49.2597 23.5754 47.478 24.2423 46.1468 25.4992C44.8157 26.756 44.0477 28.4966 44.0166 30.3271C44.0166 33.1658 45.9818 36.7503 50.8684 36.7503C52.6896 36.6827 54.4934 36.3709 56.2315 35.823V33.6209C56.2315 32.5387 57.5764 32.057 57.5764 32.057H53.0594L51.6762 32.9297C52.5704 32.8014 53.4737 32.7466 54.3769 32.7659V35.4954C53.6973 35.8295 52.9483 35.9979 52.1911 35.9868C48.7109 35.9155 45.9229 33.0813 45.9088 29.6004C45.9088 25.8795 48.5719 24.3052 50.8861 24.3052C52.2835 24.3238 53.604 24.9479 54.5053 26.0159L54.0826 26.7072L54.7627 26.525L56.2315 25.1418ZM62.4496 27.5098C61.1897 27.4665 59.9673 27.9422 59.0681 28.8256C58.1688 29.709 57.6714 30.9227 57.6921 32.1831C57.7201 34.6279 59.714 36.5929 62.1589 36.585C65.0139 36.585 67.0145 34.6847 67.0145 32.0112C67.0564 30.7933 66.5863 29.6135 65.7184 28.7582C64.8504 27.9028 63.6638 27.45 62.4467 27.5098H62.4496ZM62.6441 36.0032C60.4804 36.0032 59.4587 32.668 59.4587 30.9809C59.4587 29.2938 60.6051 28.092 61.9256 28.092C63.8097 28.092 65.1103 30.311 65.1103 32.9011C65.1073 33.793 64.8048 36.0032 62.6412 36.0032H62.6441ZM72.6521 27.5142C71.3928 27.4712 70.171 27.9466 69.2721 28.8295C68.3731 29.7125 67.8757 30.9255 67.8961 32.1853C67.924 34.6292 69.9174 36.5933 72.3614 36.585C75.2148 36.585 77.214 34.6861 77.214 32.0112C77.256 30.7942 76.7862 29.6153 75.9187 28.7607C75.0512 27.9061 73.8653 27.454 72.6491 27.5142H72.6521ZM72.8458 36.0037C70.6836 36.0037 69.6627 32.67 69.6627 30.9873C69.6627 29.3046 70.8083 28.1 72.1281 28.1C74.0114 28.1 75.312 30.3182 75.312 32.9061C75.309 33.7943 75.0058 36.0037 72.8429 36.0037H72.8458ZM84.7432 35.9419C83.8071 35.2971 83.6241 34.9887 83.6241 34.7091C83.6241 34.4296 83.6337 34.2038 84.2991 33.5731C85.0803 32.9824 85.5494 32.0676 85.5731 31.0885C85.6084 30.092 85.1633 29.1391 84.3766 28.5264L85.5148 28.4881L86.6531 27.8138H82.2158C80.1166 27.7406 78.3432 29.3574 78.2226 31.4544C78.2226 32.7823 79.3506 34.372 81.5792 34.372C81.7094 34.3737 81.8392 34.3576 81.965 34.3241C81.8759 34.541 81.83 34.7733 81.83 35.0079C81.8739 35.4593 82.0674 35.883 82.3796 36.2119C82.3796 36.2119 77.2385 36.217 77.2385 39.5057C77.2385 41.4938 79.4863 42.2404 81.3284 42.2404C83.1704 42.2404 86.3248 41.2489 86.3248 38.7156C86.3055 37.581 85.7078 36.5348 84.7403 35.9419H84.7432ZM82.3028 33.7945C80.9572 33.7945 79.8861 31.7864 79.8861 30.5729C79.8861 29.3594 80.4939 28.4926 81.5643 28.4926C82.6347 28.4926 83.9088 29.7201 83.9088 31.9598C83.9058 32.7395 83.6454 33.7945 82.2998 33.7945H82.3028ZM82.2018 41.4223C81.5791 41.4223 78.9315 41.1766 78.9315 39.0815C78.9315 36.9864 81.9841 36.7946 82.3382 36.7946C82.5588 36.7953 82.779 36.8124 82.997 36.8455C83.9376 37.6762 84.9792 38.0878 84.9792 39.3877C84.9763 41.2489 82.8207 41.426 82.1988 41.426L82.2018 41.4223ZM86.9368 24.1393L87.6944 22.9937L90.325 23.0077C89.6759 23.3537 89.2126 23.6568 89.1956 25.2702C89.1786 26.8836 89.1956 34.3196 89.1956 34.3196C89.2979 35.0317 89.8005 35.6216 90.4873 35.8356C90.7044 35.8254 90.9216 35.8544 91.1284 35.9212L90.325 36.5851H86.9368C86.9368 36.5851 88.0603 35.8858 88.0662 35.4542V24.1393H86.9368ZM98.7405 29.8692C98.3636 28.3719 96.9651 27.362 95.4252 27.4754C94.2511 27.4522 93.1197 27.916 92.2998 28.7568C91.4798 29.5975 91.0445 30.7402 91.0971 31.9134C91.0971 34.1125 92.4036 36.5853 95.6591 36.5853C96.977 36.6049 98.2188 35.9692 98.9736 34.8886C98.2676 35.2802 97.4794 35.5003 96.6727 35.5311C94.8601 35.5311 92.754 33.6234 92.754 30.8201C92.754 28.9316 94.073 28.1725 94.8992 28.1725C95.3842 28.1169 95.8685 28.2812 96.2196 28.6204C96.5706 28.9596 96.7514 29.438 96.7125 29.9246C96.565 30.1879 92.813 31.7157 92.813 31.7157L94.3142 31.6375L98.7405 29.8692Z" fill="white"/>
<path d="M50.3008 10.2102V10.4758C50.3008 11.1151 50.0721 11.6561 49.6147 12.0987C49.1574 12.5364 48.5451 12.7553 47.7778 12.7553C46.9959 12.7553 46.3492 12.4971 45.8377 11.9807C45.3262 11.4643 45.0705 10.8323 45.0705 10.0848C45.0705 9.33724 45.3262 8.70527 45.8377 8.18888C46.3492 7.67249 46.9959 7.41429 47.7778 7.41429C48.2549 7.41429 48.6926 7.52986 49.091 7.76101C49.4893 7.99216 49.7967 8.29954 50.0131 8.68314L49.5557 8.94872C49.3934 8.63396 49.1524 8.38314 48.8328 8.19626C48.5131 8.00937 48.1615 7.91593 47.7778 7.91593C47.1336 7.91593 46.6074 8.12494 46.1992 8.54298C45.791 8.96101 45.5869 9.47494 45.5869 10.0848C45.5869 10.6946 45.791 11.2086 46.1992 11.6266C46.6074 12.0446 47.1336 12.2536 47.7778 12.2536C48.3582 12.2536 48.8229 12.1086 49.1721 11.8184C49.5213 11.5233 49.7205 11.1495 49.7697 10.6971H47.7188V10.2102H50.3008ZM52.8168 8.8897C53.3627 8.8897 53.8029 9.08396 54.1373 9.47249C54.4767 9.85609 54.6463 10.311 54.6463 10.8372C54.6463 10.8913 54.6414 10.9676 54.6316 11.0659H51.3931C51.4422 11.4397 51.5996 11.7372 51.8652 11.9586C52.1357 12.1749 52.4677 12.2831 52.8611 12.2831C53.1414 12.2831 53.3824 12.2266 53.584 12.1135C53.7906 11.9954 53.9455 11.843 54.0488 11.6561L54.4767 11.9069C54.3144 12.1676 54.0931 12.3741 53.8127 12.5266C53.5324 12.679 53.2127 12.7553 52.8537 12.7553C52.2734 12.7553 51.8013 12.5733 51.4373 12.2094C51.0734 11.8454 50.8914 11.3831 50.8914 10.8225C50.8914 10.2717 51.0709 9.81183 51.4299 9.44298C51.789 9.07413 52.2513 8.8897 52.8168 8.8897ZM52.8168 9.36183C52.4332 9.36183 52.1111 9.4774 51.8504 9.70855C51.5947 9.93478 51.4422 10.2299 51.3931 10.5938H54.1447C54.0955 10.2053 53.9455 9.90281 53.6947 9.68642C53.4439 9.47003 53.1513 9.36183 52.8168 9.36183ZM57.2677 9.45035H56.2054V11.6856C56.2054 11.8872 56.2447 12.0323 56.3234 12.1208C56.4021 12.2045 56.5201 12.2487 56.6775 12.2536C56.8349 12.2536 57.0316 12.2487 57.2677 12.2389V12.6667C56.7513 12.7454 56.3628 12.7086 56.1021 12.5561C55.8464 12.4036 55.7185 12.1135 55.7185 11.6856V9.45035H54.9439V8.97822H55.7185V8.09298L56.2054 7.94544V8.97822H57.2677V9.45035ZM60.4177 8.09298C60.3488 8.16183 60.2652 8.19626 60.1669 8.19626C60.0685 8.19626 59.9849 8.16183 59.916 8.09298C59.8472 8.02413 59.8128 7.94052 59.8128 7.84216C59.8128 7.7438 59.8472 7.66019 59.916 7.59134C59.9849 7.52249 60.0685 7.48806 60.1669 7.48806C60.2652 7.48806 60.3488 7.52249 60.4177 7.59134C60.4865 7.66019 60.521 7.7438 60.521 7.84216C60.521 7.94052 60.4865 8.02413 60.4177 8.09298ZM59.9234 12.6667V8.97822H60.4103V12.6667H59.9234ZM63.3984 9.45035H62.3361V11.6856C62.3361 11.8872 62.3755 12.0323 62.4541 12.1208C62.5328 12.2045 62.6509 12.2487 62.8082 12.2536C62.9656 12.2536 63.1623 12.2487 63.3984 12.2389V12.6667C62.882 12.7454 62.4935 12.7086 62.2328 12.5561C61.9771 12.4036 61.8492 12.1135 61.8492 11.6856V9.45035H61.0746V8.97822H61.8492V8.09298L62.3361 7.94544V8.97822H63.3984V9.45035ZM69.1451 12.202C68.7714 12.5708 68.314 12.7553 67.773 12.7553C67.232 12.7553 66.7722 12.5708 66.3935 12.202C66.0197 11.8282 65.8328 11.3684 65.8328 10.8225C65.8328 10.2766 66.0197 9.81921 66.3935 9.45035C66.7722 9.07658 67.232 8.8897 67.773 8.8897C68.314 8.8897 68.7714 9.07658 69.1451 9.45035C69.5238 9.81921 69.7132 10.2766 69.7132 10.8225C69.7132 11.3684 69.5238 11.8282 69.1451 12.202ZM66.7402 11.8626C67.0205 12.143 67.3648 12.2831 67.773 12.2831C68.1812 12.2831 68.5255 12.143 68.8058 11.8626C69.0861 11.5774 69.2263 11.2307 69.2263 10.8225C69.2263 10.4143 69.0861 10.07 68.8058 9.7897C68.5255 9.50445 68.1812 9.36183 67.773 9.36183C67.3648 9.36183 67.0205 9.50445 66.7402 9.7897C66.4599 10.07 66.3197 10.4143 66.3197 10.8225C66.3197 11.2307 66.4599 11.5774 66.7402 11.8626ZM72.2541 8.8897C72.7017 8.8897 73.0533 9.0274 73.3091 9.30281C73.5697 9.57331 73.7 9.9397 73.7 10.402V12.6667H73.2132V10.402C73.2132 10.0725 73.1246 9.81675 72.9476 9.63478C72.7755 9.45281 72.5296 9.36183 72.2099 9.36183C71.8558 9.36183 71.5681 9.47494 71.3468 9.70117C71.1255 9.92249 71.0148 10.2667 71.0148 10.734V12.6667H70.5279V8.97822H71.0148V9.55363C71.2902 9.11101 71.7033 8.8897 72.2541 8.8897Z" fill="white"/>
<path fill-rule="evenodd" clip-rule="evenodd" d="M36.4039 24.3374L31.2702 27.2019L27.1553 23.1069L31.2702 19.0119L36.4039 21.8764C36.9049 22.0796 37.2326 22.5662 37.2326 23.1069C37.2326 23.6475 36.9049 24.1341 36.4039 24.3374ZM26.4879 22.4407L12.9746 8.99377C13.3714 9.06432 13.7517 9.20736 14.0967 9.41574C15.7595 10.3512 24.3899 15.1698 30.4147 18.533L26.4879 22.4407ZM11.9118 36.9448C11.5732 36.5813 11.3695 36.1125 11.335 35.6169V10.5903C11.3703 10.0959 11.5739 9.62861 11.9118 9.26609L25.8183 23.104L11.9118 36.9448ZM26.4879 23.7731L30.4147 27.6829C24.3899 31.0461 15.7595 35.8648 14.0967 36.8002C13.7517 37.0086 13.3714 37.1516 12.9746 37.2222L26.4879 23.7731Z" fill="white"/>
</svg>
