<svg width="15" height="15" viewBox="0 0 15 15" fill="none" xmlns="http://www.w3.org/2000/svg">
<path d="M1.52786 11.2767L1.58208 11.0768L1.47905 10.8971C0.89353 9.87602 0.552264 8.65929 0.552264 7.44792C0.552264 3.61111 3.67171 0.5 7.52613 0.5C9.37901 0.5 11.1339 1.22819 12.4519 2.54167C13.763 3.84817 14.4494 5.59491 14.5 7.4026C14.4963 11.2363 11.3783 14.3438 7.52613 14.3438C6.35654 14.3438 5.23345 14.0527 4.2035 13.5151L4.0322 13.4257L3.84529 13.4747L0.708656 14.2973L1.52786 11.2767ZM8.54308 11.402L8.57452 11.4145L8.60735 11.4227C9.09383 11.5439 9.57895 11.5454 9.95476 11.4837C10.2375 11.4418 10.5796 11.2841 10.8578 11.1017C11.1276 10.9248 11.4639 10.643 11.6004 10.2803C11.6954 10.0278 11.7447 9.78668 11.7615 9.57777C11.7773 9.38033 11.767 9.17505 11.7111 9.00806L11.6736 8.89595L11.5899 8.8125C11.5116 8.73447 11.4204 8.68083 11.355 8.6446C11.2897 8.60845 11.2078 8.56747 11.1164 8.52193C10.9865 8.44228 10.7073 8.29856 10.4669 8.17878C10.3273 8.10922 10.1864 8.0407 10.0693 7.98569C9.96491 7.93671 9.8475 7.88313 9.77434 7.85883C9.77066 7.8576 9.76625 7.85609 9.76116 7.85434C9.69701 7.83235 9.52486 7.77332 9.34295 7.7898C9.22617 7.80038 9.102 7.84003 8.9883 7.92428C8.87863 8.00555 8.80362 8.1098 8.75171 8.21327C8.72776 8.261 8.64483 8.37756 8.52471 8.52387C8.4586 8.60439 8.39462 8.67788 8.34589 8.73198C8.32839 8.72392 8.30998 8.71553 8.29069 8.70674C8.02158 8.58413 7.58034 8.38309 7.02022 7.90583C6.60369 7.52727 6.31155 7.12113 6.17019 6.89256C6.17718 6.88402 6.18336 6.87629 6.18853 6.86979C6.20272 6.85196 6.21961 6.8302 6.23497 6.81042C6.24187 6.80154 6.24845 6.79305 6.25435 6.7855C6.30013 6.72684 6.3355 6.68404 6.36339 6.65625C6.52592 6.49429 6.60878 6.32887 6.66143 6.22376C6.66312 6.22038 6.66478 6.21707 6.66641 6.21381C6.78948 5.96854 6.78948 5.69812 6.66641 5.45285L6.62999 5.38025L6.62318 5.37347C6.61374 5.35311 6.60196 5.32688 6.58784 5.29457C6.54617 5.19921 6.49246 5.07022 6.4338 4.92731C6.39799 4.84008 6.3602 4.74731 6.3227 4.65526C6.24027 4.45292 6.15928 4.25408 6.10392 4.12538C6.00275 3.89012 5.85665 3.68067 5.62224 3.57449C5.42022 3.48298 5.16789 3.51042 5.22648 3.51042H5.22587H5.22525H5.22464H5.22402H5.2234H5.22278H5.22216H5.22154H5.22092H5.22029H5.21967H5.21904H5.21842H5.21779H5.21716H5.21653H5.2159H5.21527H5.21463H5.214H5.21336H5.21272H5.21209H5.21145H5.21081H5.21016H5.20952H5.20888H5.20823H5.20759H5.20694H5.20629H5.20564H5.20499H5.20434H5.20369H5.20304H5.20238H5.20173H5.20107H5.20042H5.19976H5.1991H5.19844H5.19778H5.19711H5.19645H5.19579H5.19512H5.19446H5.19379H5.19312H5.19245H5.19178H5.19111H5.19044H5.18977H5.1891H5.18842H5.18775H5.18707H5.18639H5.18571H5.18503H5.18435H5.18367H5.18299H5.18231H5.18163H5.18094H5.18026H5.17957H5.17888H5.1782H5.17751H5.17682H5.17613H5.17544H5.17474H5.17405H5.17336H5.17266H5.17197H5.17127H5.17058H5.16988H5.16918H5.16848H5.16778H5.16708H5.16638H5.16568H5.16497H5.16427H5.16356H5.16286H5.16215H5.16144H5.16074H5.16003H5.15932H5.15861H5.1579H5.15719H5.15648H5.15576H5.15505H5.15434H5.15362H5.15291H5.15219H5.15147H5.15076H5.15004H5.14932H5.1486H5.14788H5.14716H5.14644H5.14571H5.14499H5.14427H5.14354H5.14282H5.1421H5.14137H5.14064H5.13992H5.13919H5.13846H5.13773H5.137H5.13627H5.13554H5.13481H5.13408H5.13335H5.13261H5.13188H5.13115H5.13041H5.12968H5.12894H5.12821H5.12747H5.12673H5.12599H5.12526H5.12452H5.12378H5.12304H5.1223H5.12156H5.12082H5.12008H5.11933H5.11859H5.11785H5.1171H5.11636H5.11562H5.11487H5.11413H5.11338H5.11264H5.11189H5.11114H5.11039H5.10965H5.1089H5.10815H5.1074H5.10665H5.1059H5.10515H5.1044H5.10365H5.1029H5.10215H5.1014H5.10064H5.09989H5.09914H5.09838H5.09763H5.09688H5.09612H5.09537H5.09461H5.09386H5.0931H5.09235H5.09159H5.09083H5.09008H5.08932H5.08856H5.08781H5.08705H5.08629H5.08553H5.08477H5.08401H5.08325H5.08249H5.08174H5.08098H5.08022H5.07945H5.07869H5.07793H5.07717H5.07641H5.07565H5.07489H5.07413H5.07336H5.0726H5.07184H5.07108H5.07032H5.06955H5.06879H5.06803H5.06726H5.0665H5.06574H5.06497H5.06421H5.06344H5.06268H5.06192H5.06115H5.06039H5.05962H5.05886H5.05809H5.05733H5.05656H5.0558H5.05503H5.05427H5.0535H5.05274H5.05197H5.05121H5.05044H5.04968H5.04891H5.04815H5.04738H5.04662H5.04585H5.04508H5.04432H5.04355H5.04279H5.04202H5.04126H5.04049H5.03972H5.03896H5.03819H5.03743H5.03666H5.0359H5.03513H5.03437H5.0336H5.03284H5.03207H5.03131H5.03054H5.02978H5.02901H5.02825H5.02748H5.02672H5.02595H5.02519H5.02443H5.02366H5.0229H5.02213H5.02137H5.02061H5.01984H5.01908H5.01832H5.01755H5.01679H5.01603H5.01527H5.0145H5.01374H5.01298H5.01222H5.01146H5.01069H5.00993H5.00917H5.00841H5.00765H5.00689H5.00613H5.00537H5.00461H5.00385H5.00309H5.00233H5.00157H5.00082H5.00006H4.9993H4.99854H4.99779H4.99703H4.99627H4.99552H4.99476H4.994H4.99325H4.99249H4.99174H4.99098H4.99023H4.98947H4.98872H4.98797H4.98721H4.98646H4.98571H4.98496H4.98421H4.98346H4.9827H4.98195H4.9812H4.98045H4.9797H4.97896H4.97821H4.97746H4.97671H4.97596H4.97522H4.97447H4.97372H4.97298H4.97223H4.97149H4.97075H4.97H4.96926H4.96851H4.96777H4.96703H4.96629H4.96555H4.96481H4.96407H4.96333H4.96259H4.96185H4.96111H4.96037H4.95964H4.9589H4.95816H4.95743H4.95669H4.95596H4.95523H4.95449H4.95376H4.95303H4.9523H4.95156H4.95083H4.9501H4.94937H4.94865H4.94792H4.94719H4.94646H4.94574H4.94501H4.94429H4.94356H4.94284H4.94211H4.94139H4.94067H4.93995H4.93923H4.93851H4.93779H4.93707H4.93635H4.93563H4.93492H4.9342H4.93348H4.93277H4.93206H4.93134H4.93063H4.92992H4.92921H4.9285H4.92779H4.92708H4.92637H4.92566H4.92495H4.92425H4.92354H4.92284H4.92213H4.92143H4.92073H4.92003H4.91933H4.91863H4.91793H4.91723H4.91653H4.91583H4.91514H4.91444H4.91375H4.91305H4.91236H4.91167H4.91098H4.91029H4.9096H4.90891H4.90822H4.90754H4.90685H4.90616H4.90548H4.9048H4.90411H4.90343H4.90275H4.90207H4.90139H4.90071H4.90004H4.89936H4.89868H4.89801H4.89734H4.89666H4.89599H4.89532H4.89465H4.89398H4.89332H4.89265H4.89198H4.89132H4.89065H4.88999H4.88933H4.88867H4.88801H4.88735H4.88669H4.88603H4.88538H4.88472H4.88407H4.88341H4.88276H4.88211H4.88146H4.88081H4.88017H4.87952H4.87887H4.87823H4.87758H4.87694H4.8763H4.87566H4.87502H4.87438H4.87375H4.87311H4.87247H4.87184H4.87121H4.87058H4.86995H4.86932H4.86869H4.86806H4.86744H4.86681H4.86619H4.86556H4.86494H4.86432H4.8637H4.86309H4.86247H4.86185H4.86124H4.86063C4.85578 3.51042 4.85062 3.5104 4.84516 3.51038C4.68076 3.50987 4.24671 3.50853 3.93848 3.91808C3.93412 3.92387 3.92421 3.93554 3.90999 3.95229C3.83887 4.03605 3.65991 4.24681 3.52833 4.48408C3.3527 4.80077 3.2108 5.22223 3.2108 5.78125C3.2108 6.36288 3.41871 6.90115 3.62004 7.28808C3.79387 7.62216 3.98721 7.88905 4.09925 8.01669C4.29173 8.30808 5.53681 10.1638 7.4754 10.976C7.79062 11.1316 8.10848 11.2449 8.33391 11.3252C8.41822 11.3552 8.4896 11.3806 8.54308 11.402ZM8.26071 8.82184C8.26072 8.82181 8.26133 8.82126 8.26254 8.82031C8.26131 8.8214 8.2607 8.82188 8.26071 8.82184Z" fill="white" stroke="white"/>
</svg>
